<?xml version="1.0" encoding="utf-8"?>
<!-- Generator: Adobe Illustrator 25.2.3, SVG Export Plug-In . SVG Version: 6.00 Build 0)  -->
<svg version="1.1" id="Layer_1" xmlns="http://www.w3.org/2000/svg" xmlns:xlink="http://www.w3.org/1999/xlink" x="0px" y="0px"
	 viewBox="0 0 145.6 48.2" style="enable-background:new 0 0 145.6 48.2;" xml:space="preserve">
<style type="text/css">
	.st0{fill:#FFFFFF;}
</style>
<g>
	<path class="st0" d="M29,23c0,7.3-5.2,12.5-12.8,12.5c-1,0-1.9-0.2-2.8-0.6v4.6c0,4.1,0.6,5.1,4.4,5.1v0.2H1.9v-0.2
		c3.2,0,3.6-1,3.6-5.1V18.9c0-3-0.2-4.4-4-3.5v-0.2l12.1-2.9L13.5,17c1.9-3,4.3-4.8,7.3-4.8C25.7,12.3,29,16.6,29,23L29,23z
		 M13.3,30.8c0,2.2,0.2,4.5,2.8,4.5c2.9,0,4.1-3.4,4.1-12.3c0-1.5,0-8.5-3.4-8.5c-1.4,0-2.4,1.3-3.5,2.9V30.8z"/>
	<path class="st0" d="M30.8,35.1v-0.2c3.2,0,3.6-1,3.6-5.1V2.6L39.3,2l0,0c-2.8-0.3-4.4-0.5-5.8-0.5c-3.1,0-4.6,0.9-4.6,2.8
		c0,1.3,1,2.2,2,2.7c-0.1,2.7-2.2,3.9-4.3,3.9c-2.2,0-4.2-1.6-4.2-4.2c0-4.1,4-5.6,8.3-5.6c4,0,8.5,0.8,10.1,0.8
		c0.6,0,1.2-0.2,1.6-0.5v28.5c0,4.1,0.4,5.1,3.6,5.1v0.2H30.8V35.1z"/>
	<path class="st0" d="M74.3,32.2c-2,1.7-4.4,3.2-7.3,3.2c-3.1,0-4.6-1.9-4.6-4.7c-1.9,2.9-4.3,4.8-7.3,4.8c-5.1,0-8.4-4.3-8.4-10.7
		c0-7.3,5.2-12.5,12.8-12.5c1.7,0,4.6,0.5,6.6,1.6l4.1-1.5v17.4c0,1.6,0.2,3.1,2,3.1c0.6,0,1.2-0.2,1.9-0.8L74.3,32.2z M58.8,33.3
		c1.4,0,2.4-1.3,3.5-2.9V17c0-2.2-0.2-4.5-2.8-4.5c-2.9,0-4.1,3.4-4.1,12.3C55.4,26.3,55.5,33.3,58.8,33.3L58.8,33.3z"/>
	<path class="st0" d="M108.7,36.9c2.3,0,4.3,1.4,4.3,4.3c0,4.1-4.9,5.7-9,5.7c-5.5,0-11.9-4.3-11.9-12.7V19.6c0-1.5-0.1-4.2-2.6-4.2
		c-1.2,0-2.5,0.6-3.8,1.8v12.6c0,3.1,0.1,5.1,2.5,5.1v0.2h-14v-0.2c3.2,0,3.6-1,3.6-5.1V18.9c0-3-0.2-4.4-4-3.5v-0.2l12.1-2.9
		L85.6,17c4.3-3.5,6.9-4.7,9.5-4.7c3.5,0,5,2,5,6.4v17.6c0,6,0.2,10.4,4,10.4c1.5,0,2.7-0.8,2.7-2.7c0-1.6-1.3-2.7-2.4-3.1
		C104.5,38.1,106.6,36.9,108.7,36.9L108.7,36.9z"/>
	<path class="st0" d="M107,29.6V12.8h-3.1v-0.2h1c3.3,0,6.1-0.5,7.9-1.8c1.1-1.6,1.8-4.3,1.9-6.3h0.2v8.1h4.4v0.2h-4.4v15.8
		c0,2,0.1,4.1,2.2,4.1c1.1,0,2.1-0.6,3.1-1.6l0.1,0.1c-2,2.2-4.8,4.1-8.1,4.1C108.5,35.5,107,33.2,107,29.6z"/>
	<path class="st0" d="M144.5,17.6c0,2.8-2,5-4.8,5c-1.9,0-3.7-1.2-3.8-3.6c1.3-0.4,2.1-1.5,2.1-3c0-1.4-0.6-2.3-1.9-2.3
		c-2,0-3.5,2.7-4.4,5.5v10.6c0,4.1,0.5,5.1,4.1,5.1v0.2h-15.6v-0.2c3.2,0,3.6-1,3.6-5.1V18.9c0-3-0.2-4.4-4-3.5v-0.2l12.1-2.9
		l-0.1,6.3c1.1-3.2,3.1-6.4,7.2-6.4C141.8,12.3,144.5,14.1,144.5,17.6z"/>
</g>
</svg>
